<svg xmlns="http://www.w3.org/2000/svg" width="888" height="475.351" viewBox="0 0 888 475.351">
  <g id="undraw_true_love_cy8x" transform="translate(0 0.081)">
    <rect id="Rectángulo_12" data-name="Rectángulo 12" width="2.573" height="13.894" transform="matrix(0.894, 0.448, -0.448, 0.894, 249.795, 6.971)" fill="#fff"/>
    <path id="Trazado_15" data-name="Trazado 15" d="M426.985,248.842a66,66,0,0,0-93.338,0l-.018.018a65.978,65.978,0,1,0-93.307,93.308l-.013.013,93.338,93.338,93.338-93.338A66,66,0,0,0,426.985,248.842Z" transform="translate(-156 -212.365)" fill="#ff6584"/>
    <path id="Trazado_16" data-name="Trazado 16" d="M709.43,621.817H219.751a9.991,9.991,0,0,1-1.83-.145l231.6-401.157a16.216,16.216,0,0,1,28.227,0L633.173,489.723l7.446,12.882Z" transform="translate(-156 -212.365)" fill="#6c63ff"/>
    <path id="Trazado_17" data-name="Trazado 17" d="M553.43,409.452H386.241l82.073-119.213,5.906-8.587,2.953-4.294,7.446,12.881Z" opacity="0.2"/>
    <path id="Trazado_18" data-name="Trazado 18" d="M982.079,621.365H558.547l82.072-119.213,5.906-8.588L753.473,338.207c7.011-10.182,23.879-10.816,32.122-1.92a19.336,19.336,0,0,1,1.54,1.92Z" transform="translate(-156 -212.365)" fill="#3f3d56"/>
    <rect id="Rectángulo_13" data-name="Rectángulo 13" width="888" height="2.241" transform="translate(0 407.933)" fill="#3f3d56"/>
    <ellipse id="Elipse_29" data-name="Elipse 29" cx="32.342" cy="10.153" rx="32.342" ry="10.153" transform="translate(380.23 376.116) rotate(-21.176)" fill="#2f2e41"/>
    <circle id="Elipse_30" data-name="Elipse 30" cx="64.684" cy="64.684" r="64.684" transform="translate(284.586 318.064)" fill="#2f2e41"/>
    <rect id="Rectángulo_14" data-name="Rectángulo 14" width="19.651" height="35.208" transform="translate(319.794 433.513)" fill="#2f2e41"/>
    <rect id="Rectángulo_15" data-name="Rectángulo 15" width="19.651" height="35.208" transform="translate(359.095 433.513)" fill="#2f2e41"/>
    <ellipse id="Elipse_31" data-name="Elipse 31" cx="16.376" cy="6.141" rx="16.376" ry="6.141" transform="translate(319.793 462.989)" fill="#2f2e41"/>
    <ellipse id="Elipse_32" data-name="Elipse 32" cx="16.376" cy="6.141" rx="16.376" ry="6.141" transform="translate(359.095 462.17)" fill="#2f2e41"/>
    <circle id="Elipse_33" data-name="Elipse 33" cx="22.107" cy="22.107" r="22.107" transform="translate(328.8 344.266)" fill="#fff"/>
    <circle id="Elipse_34" data-name="Elipse 34" cx="7.369" cy="7.369" r="7.369" transform="translate(343.538 359.004)" fill="#3f3d56"/>
    <path id="Trazado_19" data-name="Trazado 19" d="M442.524,534.959C437.3,511.568,454,487.933,479.815,482.168s50.982,8.524,56.2,31.914-11.888,32.018-37.706,37.782S447.747,558.349,442.524,534.959Z" transform="translate(-156 -212.365)" fill="#b8d906"/>
    <ellipse id="Elipse_35" data-name="Elipse 35" cx="32.342" cy="10.153" rx="32.342" ry="10.153" transform="translate(254.369 406.425) rotate(-45)" fill="#2f2e41"/>
    <path id="Trazado_20" data-name="Trazado 20" d="M473.5,618.448c0,6.331,16.3,18.832,34.389,18.832s35.048-17.823,35.048-24.154-16.96,1.228-35.048,1.228S473.5,612.117,473.5,618.448Z" transform="translate(-156 -212.365)" fill="#fff"/>
    <ellipse id="Elipse_36" data-name="Elipse 36" cx="10.153" cy="32.342" rx="10.153" ry="32.342" transform="translate(434.116 371.689) rotate(-68.824)" fill="#2f2e41"/>
    <circle id="Elipse_37" data-name="Elipse 37" cx="64.684" cy="64.684" r="64.684" transform="translate(468.046 318.064)" fill="#2f2e41"/>
    <rect id="Rectángulo_16" data-name="Rectángulo 16" width="19.651" height="35.208" transform="translate(562.206 468.721) rotate(180)" fill="#2f2e41"/>
    <rect id="Rectángulo_17" data-name="Rectángulo 17" width="19.651" height="35.208" transform="translate(522.905 468.721) rotate(180)" fill="#2f2e41"/>
    <ellipse id="Elipse_38" data-name="Elipse 38" cx="16.376" cy="6.141" rx="16.376" ry="6.141" transform="translate(529.455 462.989)" fill="#2f2e41"/>
    <ellipse id="Elipse_39" data-name="Elipse 39" cx="16.376" cy="6.141" rx="16.376" ry="6.141" transform="translate(490.153 462.17)" fill="#2f2e41"/>
    <circle id="Elipse_40" data-name="Elipse 40" cx="22.107" cy="22.107" r="22.107" transform="translate(508.986 344.266)" fill="#fff"/>
    <circle id="Elipse_41" data-name="Elipse 41" cx="7.369" cy="7.369" r="7.369" transform="translate(523.724 359.004)" fill="#3f3d56"/>
    <path id="Trazado_21" data-name="Trazado 21" d="M751.476,534.959c5.223-23.391-11.473-47.026-37.291-52.791s-50.982,8.524-56.2,31.914,11.888,32.018,37.706,37.782S746.253,558.349,751.476,534.959Z" transform="translate(-156 -212.365)" fill="#4e9dec"/>
    <ellipse id="Elipse_42" data-name="Elipse 42" cx="10.153" cy="32.342" rx="10.153" ry="32.342" transform="translate(567.541 375.044) rotate(-45)" fill="#2f2e41"/>
    <path id="Trazado_22" data-name="Trazado 22" d="M720.5,618.448c0,6.331-16.3,18.832-34.389,18.832s-35.048-17.823-35.048-24.154,16.96,1.228,35.048,1.228S720.5,612.117,720.5,618.448Z" transform="translate(-156 -212.365)" fill="#fff"/>
    <path id="Trazado_23" data-name="Trazado 23" d="M1044,527.227c0,41.8-24.85,56.4-55.5,56.4s-55.5-14.6-55.5-56.4,55.5-94.979,55.5-94.979S1044,485.426,1044,527.227Z" transform="translate(-156 -212.365)" fill="#e6e6e6"/>
    <path id="Trazado_24" data-name="Trazado 24" d="M830.474,364.865l.568-34.984L854.7,286.6l-23.568,37.792.256-15.73,16.3-31.313L831.454,304.5h0l.46-28.291,17.459-24.929-17.387,20.48.287-51.876-1.8,68.675.148-2.833-17.751-27.171,17.466,32.609-1.654,31.6-.049-.839-20.463-28.593,20.4,31.556-.207,3.951-.037.06.017.324-4.2,80.163h5.607l.672-41.406L850.775,336.5Z" fill="#3f3d56"/>
  </g>
</svg>
